<?xml version="1.0" standalone="no"?>
<!DOCTYPE svg PUBLIC "-//W3C//DTD SVG 20010904//EN"
 "http://www.w3.org/TR/2001/REC-SVG-20010904/DTD/svg10.dtd">
<svg version="1.0" xmlns="http://www.w3.org/2000/svg"
 width="1052.000000pt" height="1052.000000pt" viewBox="0 0 1052.000000 1052.000000"
 preserveAspectRatio="xMidYMid meet">
<metadata>
Created by potrace 1.11, written by Peter Selinger 2001-2013
</metadata>
<g transform="translate(0.000000,1052.000000) scale(0.100000,-0.100000)"
fill="#000000" stroke="none">
<path d="M5167 8414 c-1 -1 -162 -4 -357 -8 -354 -7 -455 -10 -645 -21 -195
-11 -438 -30 -520 -40 -22 -2 -62 -7 -90 -11 -118 -14 -384 -67 -528 -104
-266 -69 -469 -141 -672 -241 -408 -200 -705 -450 -924 -778 -214 -321 -371
-740 -421 -1121 -6 -47 -13 -96 -15 -110 -2 -14 -7 -52 -10 -85 -3 -33 -8 -80
-10 -105 -3 -25 -7 -76 -10 -115 -3 -38 -8 -101 -11 -140 -6 -79 -5 -511 1
-565 2 -19 6 -78 10 -130 3 -52 8 -108 10 -125 2 -16 7 -57 10 -90 33 -305
121 -676 202 -855 14 -30 38 -89 55 -130 35 -87 68 -148 156 -284 339 -526
832 -856 1592 -1064 82 -23 383 -88 445 -97 22 -3 63 -10 90 -15 28 -5 73 -12
100 -15 28 -3 57 -8 65 -10 8 -2 44 -6 80 -10 36 -4 79 -8 95 -10 81 -10 169
-19 305 -31 298 -24 1528 -24 2125 1 298 13 396 20 580 46 39 5 88 12 110 15
196 26 527 95 705 145 483 138 860 335 1144 599 366 339 576 705 710 1237 84
330 91 421 91 1138 0 640 -5 705 -65 970 -11 50 -23 99 -25 111 -9 42 -67 231
-95 311 -169 479 -487 877 -936 1169 -97 64 -321 181 -399 209 -27 10 -54 22
-60 26 -19 14 -350 120 -465 149 -150 38 -299 71 -330 75 -14 1 -38 5 -55 8
-16 4 -50 9 -75 12 -25 4 -56 8 -70 10 -14 2 -61 7 -105 10 -44 4 -87 8 -95
10 -9 2 -60 6 -115 10 -55 3 -122 8 -150 10 -198 16 -428 23 -890 30 -214 4
-423 7 -463 9 -40 1 -74 1 -75 0z m848 -108 c61 -3 166 -8 235 -12 269 -14
502 -35 669 -59 20 -2 53 -7 73 -9 134 -17 399 -67 543 -102 309 -77 652 -211
845 -329 94 -58 176 -110 180 -115 3 -3 17 -13 33 -23 69 -44 281 -224 302
-256 12 -20 39 -54 59 -76 46 -50 140 -180 188 -260 202 -337 368 -873 393
-1270 6 -96 6 -932 0 -1025 -10 -164 -18 -238 -31 -310 -2 -14 -7 -41 -10 -60
-8 -53 -61 -251 -101 -380 -99 -317 -251 -602 -453 -845 -45 -55 -85 -106 -87
-113 -7 -18 -247 -196 -373 -277 -58 -37 -118 -76 -133 -87 -46 -32 -235 -123
-342 -166 -190 -75 -535 -178 -665 -198 -19 -3 -43 -7 -52 -10 -10 -3 -30 -7
-45 -10 -16 -2 -50 -9 -78 -14 -86 -16 -109 -20 -155 -26 -25 -3 -52 -7 -60
-9 -8 -3 -42 -7 -74 -11 -33 -3 -69 -8 -80 -10 -11 -2 -50 -6 -86 -9 -36 -4
-72 -8 -80 -10 -13 -4 -98 -9 -305 -20 -505 -27 -1928 -27 -2120 -1 -16 3 -62
7 -102 10 -70 6 -221 22 -286 31 -82 11 -105 14 -152 21 -27 3 -57 8 -67 9 -9
2 -38 7 -65 11 -26 3 -57 8 -68 11 -11 2 -45 8 -75 14 -972 178 -1635 596
-1983 1249 -152 286 -271 671 -312 1009 -4 30 -8 63 -10 73 -2 11 -7 49 -10
86 -4 37 -9 81 -11 97 -22 177 -22 693 0 875 3 19 7 62 11 95 11 104 15 127
36 245 91 518 275 956 526 1258 78 94 237 250 308 302 33 24 62 47 65 51 3 3
50 36 105 71 317 205 701 349 1185 443 74 14 146 28 160 30 14 2 75 10 135 19
131 19 164 24 230 31 28 4 64 8 80 10 17 2 71 6 120 10 50 4 97 9 106 10 10 2
70 6 135 10 66 4 139 8 164 10 25 2 137 7 250 11 113 3 206 7 208 9 5 4 1023
-3 1127 -9z"/>
<path d="M5052 8118 c-67 -18 -50 -47 46 -79 37 -12 105 -40 152 -61 109 -51
131 -60 154 -65 52 -10 497 -223 711 -341 88 -49 219 -122 270 -153 28 -16 59
-34 70 -39 11 -6 38 -21 60 -33 22 -13 72 -40 110 -61 241 -133 719 -451 916
-610 15 -11 39 -30 54 -41 16 -11 33 -25 39 -30 6 -6 29 -24 51 -40 22 -17 42
-33 45 -36 3 -3 32 -29 65 -56 211 -175 464 -461 599 -678 86 -139 178 -356
200 -471 3 -16 12 -66 20 -112 41 -222 36 -455 -15 -704 -18 -86 -65 -249 -88
-303 -5 -11 -23 -58 -41 -105 -44 -112 -134 -298 -210 -435 -52 -91 -184 -303
-213 -340 -4 -5 -42 -57 -84 -115 -152 -209 -322 -394 -478 -520 -99 -80 -105
-86 -105 -101 0 -15 113 -6 190 16 544 157 958 389 1211 679 228 261 416 652
495 1031 29 140 58 334 69 470 17 210 22 585 11 760 -9 135 -17 238 -22 275
-2 19 -6 56 -9 81 -3 25 -7 54 -9 65 -2 10 -9 53 -16 94 -7 41 -21 113 -32
160 -11 47 -22 96 -24 110 -7 38 -92 289 -117 345 -258 589 -651 934 -1314
1155 -137 45 -422 120 -513 135 -19 3 -69 12 -110 20 -41 8 -97 17 -125 21
-27 3 -52 8 -55 9 -3 2 -33 6 -65 10 -33 3 -73 9 -90 12 -16 3 -41 7 -55 8
-151 15 -162 15 -385 30 -147 9 -229 14 -360 20 -71 3 -168 8 -215 10 -370 18
-745 24 -788 13z"/>
<path d="M4050 8065 c-54 -15 -104 -34 -99 -39 2 -2 51 -27 109 -57 140 -71
288 -161 391 -239 95 -72 299 -272 379 -370 29 -36 56 -67 59 -70 10 -8 154
-190 197 -250 73 -101 209 -322 369 -600 87 -151 178 -308 202 -349 23 -40 43
-77 43 -81 0 -3 20 -42 45 -86 214 -373 463 -995 505 -1259 21 -133 29 -428
16 -602 -21 -295 -178 -595 -453 -865 -107 -106 -175 -161 -318 -263 -60 -43
-134 -99 -163 -123 -52 -43 -53 -46 -35 -62 38 -37 415 -173 579 -210 296 -67
327 -72 489 -75 228 -5 371 16 580 86 251 85 369 163 631 419 195 191 253 259
368 435 288 436 489 903 546 1265 6 41 14 89 17 105 9 55 5 259 -6 325 -37
207 -75 326 -161 505 -83 172 -145 271 -230 365 -155 173 -415 416 -625 583
-85 68 -413 291 -580 394 -87 54 -369 228 -387 238 -171 100 -375 219 -418
242 -280 154 -389 209 -565 288 -273 122 -621 244 -793 280 -9 2 -37 8 -62 14
-25 5 -58 12 -74 15 -16 3 -52 10 -80 15 -169 34 -402 46 -476 26z"/>
<path d="M3686 7948 c-55 -12 -211 -87 -287 -138 -408 -275 -842 -851 -1068
-1418 -63 -158 -126 -369 -137 -462 -3 -19 -7 -46 -10 -60 -8 -44 -18 -182
-18 -265 -1 -528 244 -971 799 -1446 55 -47 112 -94 126 -105 83 -61 225 -170
229 -174 23 -25 372 -253 590 -387 102 -62 192 -117 200 -123 247 -153 790
-443 943 -504 82 -33 102 -30 207 26 210 112 522 381 669 578 124 165 229 406
248 570 12 104 5 473 -11 557 -2 11 -7 44 -11 74 -12 100 -107 409 -185 599
-34 84 -37 90 -69 163 -17 38 -31 70 -31 73 0 2 -40 84 -88 182 -145 290 -437
804 -585 1032 -82 125 -181 270 -192 284 -6 6 -22 27 -35 46 -117 169 -389
466 -525 575 -28 22 -56 46 -63 53 -37 35 -263 172 -283 172 -5 0 -27 9 -47
19 -66 34 -222 82 -275 85 -29 2 -70 -1 -91 -6z"/>
</g>
</svg>
